<svg xmlns="http://www.w3.org/2000/svg" xmlns:xlink="http://www.w3.org/1999/xlink" width="86.97" height="82.285" viewBox="0 0 86.97 82.285"><defs><style>.a{fill:none;}.b{clip-path:url(#a);}.c{fill:#fff;}</style><clipPath id="a"><rect class="a" width="53.21" height="69.146"/></clipPath></defs><g transform="matrix(0.545, -0.839, 0.839, 0.545, 0, 44.625)"><g class="b"><path class="c" d="M32.5,23.183a5.543,5.543,0,0,1,6.69,4.964c4.51-.155,5.925.838,7.032,4.962.236-.041.476-.085.716-.122a5.367,5.367,0,0,1,6.075,6.633c-1.68,5.962-3.372,11.929-5.332,17.8C45.092,65.183,36.618,70.195,28.2,68.959a46.048,46.048,0,0,1-12.373-3.714,17.589,17.589,0,0,1-8.7-9.009A98.527,98.527,0,0,1,3,44.289c-.954-3.007-1.86-6.029-2.78-9.047a3.986,3.986,0,0,1,4.012-5.411,9.345,9.345,0,0,1,8.379,5.062c.915,1.609,1.76,3.257,2.658,4.876a3.18,3.18,0,0,0,.571.594,3.128,3.128,0,0,0,.442-.706q5.3-17.737,10.575-35.482a5.351,5.351,0,0,1,4.4-4.093A5.444,5.444,0,0,1,37.3,7.068c-.858,3.04-1.793,6.059-2.7,9.087-.691,2.316-1.384,4.631-2.1,7.028M11.489,38.529l-.013.007c-.493-.912-.946-1.849-1.488-2.73a6.59,6.59,0,0,0-5.713-3.267c-1.251-.042-1.815.717-1.453,1.919.682,2.266,1.36,4.533,2.085,6.785,1.353,4.2,2.654,8.416,4.136,12.568a15.567,15.567,0,0,0,6.782,8.413c2.261,1.346,11.185,4.06,13.817,4.185q.406.02.813.026c6.459.112,12.823-4.134,14.723-10.053,1.833-5.71,3.47-11.482,5.167-17.235a2.651,2.651,0,0,0-1.823-3.328,2.691,2.691,0,0,0-3.351,1.792c-.159.467-.256.96-.456,1.407a1.3,1.3,0,0,1-2.321.2,1.99,1.99,0,0,1-.109-1.331c.319-1.293.775-2.551,1.1-3.843a2.638,2.638,0,0,0-1.877-3.234A2.71,2.71,0,0,0,38.2,32.563c-.122.349-.212.709-.321,1.063-.312,1.01-.971,1.438-1.795,1.171a1.417,1.417,0,0,1-.8-1.942c.338-1.161.689-2.319,1.032-3.479A2.709,2.709,0,0,0,33.4,25.889,2.548,2.548,0,0,0,31.174,27.7c-.309.884-.524,1.8-.841,2.684a1.289,1.289,0,0,1-1.621.8,1.319,1.319,0,0,1-.933-1.555,7.149,7.149,0,0,1,.214-.785q3.285-11.036,6.569-22.072a5.78,5.78,0,0,0,.237-.931,2.656,2.656,0,0,0-1.2-2.683,2.531,2.531,0,0,0-2.923-.008,3.057,3.057,0,0,0-1.261,1.928q-5.285,17.78-10.587,35.556a3.1,3.1,0,0,1-5.859.627q-.741-1.368-1.48-2.736" transform="translate(0 0)"/></g></g></svg>