<svg xmlns="http://www.w3.org/2000/svg" xmlns:xlink="http://www.w3.org/1999/xlink" width="299.131" height="155.906" viewBox="0 0 299.131 155.906"><defs><style>.a{fill:none;}.b{clip-path:url(#a);}.c{fill:#fff;}</style><clipPath id="a"><rect class="a" width="299.131" height="155.906"/></clipPath></defs><g transform="translate(0 0)"><g class="b" transform="translate(0 0)"><path class="c" d="M44.716,56.242v-.027a4.923,4.923,0,0,1,5.029-4.962,5.262,5.262,0,0,1,3.767,1.317l-1.33,1.6a3.522,3.522,0,0,0-2.507-.977,2.882,2.882,0,0,0-2.752,2.989v.027a2.874,2.874,0,0,0,2.9,3.042,3.336,3.336,0,0,0,1.985-.577V57.312H49.69V55.487h4.162v4.165a6.212,6.212,0,0,1-4.095,1.52,4.8,4.8,0,0,1-5.042-4.93" transform="translate(49.813 57.095)"/><path class="c" d="M50.07,56.813V51.331h2.11v5.427c0,1.564.782,2.372,2.07,2.372s2.07-.782,2.07-2.3v-5.5h2.11v5.414c0,2.9-1.632,4.329-4.207,4.329s-4.152-1.442-4.152-4.262" transform="translate(55.777 57.182)"/><path class="c" d="M55.938,51.331H58.05V59h4.78v1.92H55.938Z" transform="translate(62.314 57.182)"/><path class="c" d="M60.722,51.331h7.3v1.92H62.831v2.042h4.575V57.21H62.831v3.714h-2.11Z" transform="translate(67.643 57.182)"/><path class="c" d="M68.553,51.331H72.47c2.289,0,3.672,1.357,3.672,3.317v.027c0,2.22-1.727,3.372-3.877,3.372h-1.6v2.877H68.553Zm3.78,4.837A1.484,1.484,0,0,0,74,54.718v-.03c0-.945-.657-1.45-1.712-1.45H70.661v2.93Z" transform="translate(76.367 57.182)"/><path class="c" d="M73.714,51.331h7.234v1.877H75.809v1.945h4.522V57.03H75.809v2.015h5.207v1.879h-7.3Z" transform="translate(82.117 57.182)"/><path class="c" d="M81.5,53.278H78.583V51.331h7.946v1.947H83.61v7.646H81.5Z" transform="translate(87.54 57.182)"/><path class="c" d="M83.872,51.331h4.382a3.815,3.815,0,0,1,2.8.975,3.014,3.014,0,0,1,.822,2.192v.025A2.984,2.984,0,0,1,89.817,57.5l2.342,3.425H89.694l-2.055-3.07H85.982v3.07h-2.11Zm4.247,4.659c1.027,0,1.617-.548,1.617-1.355v-.027c0-.907-.63-1.37-1.66-1.37H85.982V55.99Z" transform="translate(93.432 57.182)"/><path class="c" d="M89.141,56.242v-.027a5.1,5.1,0,0,1,10.194-.027v.027a5.1,5.1,0,0,1-10.194.027m7.989,0v-.027a2.916,2.916,0,0,0-2.9-3.017,2.869,2.869,0,0,0-2.877,2.989v.027a2.913,2.913,0,0,0,2.9,3.012,2.867,2.867,0,0,0,2.877-2.985" transform="translate(99.302 57.095)"/><path class="c" d="M95.459,56.242v-.027a4.875,4.875,0,0,1,5-4.962,4.961,4.961,0,0,1,3.784,1.48l-1.344,1.55a3.536,3.536,0,0,0-2.452-1.084,2.844,2.844,0,0,0-2.782,2.989v.027a2.848,2.848,0,0,0,2.782,3.012,3.459,3.459,0,0,0,2.52-1.123l1.344,1.357a4.9,4.9,0,0,1-3.932,1.71,4.839,4.839,0,0,1-4.919-4.93" transform="translate(106.34 57.095)"/><path class="c" d="M101.229,51.331h2.108v3.8h3.892v-3.8h2.11v9.593h-2.11V57.073h-3.892v3.852h-2.108Z" transform="translate(112.767 57.182)"/><path class="c" d="M107.03,51.331h7.234v1.877h-5.139v1.945h4.522V57.03h-4.522v2.015h5.209v1.879h-7.3Z" transform="translate(119.23 57.182)"/><path class="c" d="M112.277,51.331h2.275l2.522,4.057,2.52-4.057h2.273v9.593h-2.095V54.661l-2.7,4.1h-.057L114.345,54.7v6.221h-2.067Z" transform="translate(125.076 57.182)"/><rect class="c" width="2.11" height="9.593" transform="translate(251.148 108.513)"/><path class="c" d="M121.545,56.242v-.027a4.876,4.876,0,0,1,5-4.962,4.953,4.953,0,0,1,3.782,1.48l-1.342,1.55a3.536,3.536,0,0,0-2.452-1.084,2.844,2.844,0,0,0-2.782,2.989v.027a2.848,2.848,0,0,0,2.782,3.012,3.455,3.455,0,0,0,2.52-1.123l1.342,1.357a4.9,4.9,0,0,1-3.93,1.71,4.841,4.841,0,0,1-4.921-4.93" transform="translate(135.399 57.095)"/><path class="c" d="M131.063,51.3h1.945l4.11,9.661H134.91l-.875-2.152h-4.057L129.1,60.96h-2.15Zm2.218,5.644-1.273-3.11-1.275,3.11Z" transform="translate(141.422 57.147)"/><path class="c" d="M133.262,51.331h2.11V59h4.782v1.92h-6.892Z" transform="translate(148.452 57.182)"/><path class="c" d="M137.891,59.6l1.247-1.492A4.4,4.4,0,0,0,142,59.268c.865,0,1.385-.342,1.385-.9v-.025c0-.537-.33-.81-1.932-1.222-1.932-.49-3.177-1.027-3.177-2.932v-.025c0-1.742,1.4-2.892,3.355-2.892a5.554,5.554,0,0,1,3.564,1.22l-1.1,1.588a4.507,4.507,0,0,0-2.494-.943c-.808,0-1.232.37-1.232.835v.027c0,.63.412.835,2.07,1.26,1.945.507,3.04,1.2,3.04,2.877v.027c0,1.9-1.45,2.974-3.52,2.974a6.105,6.105,0,0,1-4.069-1.537" transform="translate(153.609 57.111)"/><path class="c" d="M50.624,67.543a4.32,4.32,0,0,1-2.809,1.068c-1.837,0-3.222-1.068-3.222-2.765v-.03a2.785,2.785,0,0,1,1.865-2.632,3.187,3.187,0,0,1-.67-1.917v-.025a2.63,2.63,0,0,1,2.9-2.522,2.48,2.48,0,0,1,2.7,2.41v.03a2.659,2.659,0,0,1-2.017,2.507l1.277,1.275c.313-.495.628-1.057.93-1.645l1.547.85a17.8,17.8,0,0,1-1.26,2.027l1.412,1.41-1.55,1.082Zm-1.18-1.2L47.61,64.473a1.431,1.431,0,0,0-.892,1.26v.027a1.193,1.193,0,0,0,1.342,1.123,2.273,2.273,0,0,0,1.385-.545m.11-5.057v-.03a.845.845,0,0,0-.9-.888.9.9,0,0,0-.934.972v.03a1.713,1.713,0,0,0,.562,1.188c.835-.313,1.275-.67,1.275-1.273" transform="translate(49.676 65.412)"/><path class="c" d="M51.342,63.7v-.027a4.874,4.874,0,0,1,5-4.959,4.959,4.959,0,0,1,3.782,1.48l-1.344,1.547a3.54,3.54,0,0,0-2.452-1.08,2.842,2.842,0,0,0-2.782,2.987v.025a2.852,2.852,0,0,0,2.782,3.017,3.46,3.46,0,0,0,2.522-1.127l1.34,1.359a4.891,4.891,0,0,1-3.93,1.71A4.84,4.84,0,0,1,51.342,63.7" transform="translate(57.194 65.411)"/><path class="c" d="M56.379,58.8h2.11v3.8h3.892V58.8h2.11v9.591h-2.11V64.539H58.489v3.847h-2.11Z" transform="translate(62.806 65.498)"/><path class="c" d="M61.449,58.8h7.234v1.879H63.544V62.62h4.522V64.5H63.544v2.015h5.207v1.875h-7.3Z" transform="translate(68.453 65.498)"/><path class="c" d="M65.963,58.8h2.275l2.522,4.059L73.28,58.8h2.273v9.591H73.457v-6.26l-2.7,4.1H70.7l-2.674-4.057v6.219H65.963Z" transform="translate(73.482 65.498)"/><rect class="c" width="2.11" height="9.591" transform="translate(151.693 124.294)"/><path class="c" d="M73.766,63.7v-.027a4.875,4.875,0,0,1,5-4.959,4.951,4.951,0,0,1,3.78,1.48l-1.34,1.547a3.544,3.544,0,0,0-2.452-1.08,2.842,2.842,0,0,0-2.782,2.987v.025a2.851,2.851,0,0,0,2.782,3.017,3.455,3.455,0,0,0,2.52-1.127l1.344,1.359a4.909,4.909,0,0,1-3.934,1.71A4.841,4.841,0,0,1,73.766,63.7" transform="translate(82.174 65.411)"/><path class="c" d="M82.549,58.764h1.945l4.112,9.659H86.4l-.875-2.148H81.466l-.877,2.148h-2.15ZM84.77,64.41,83.5,61.3,82.221,64.41Z" transform="translate(87.38 65.462)"/><path class="c" d="M84.018,58.8h2.108v7.674h4.784v1.917H84.018Z" transform="translate(93.594 65.498)"/><path class="c" d="M87.914,67.061l1.245-1.492a4.412,4.412,0,0,0,2.864,1.163c.863,0,1.383-.342,1.383-.9V65.8c0-.535-.328-.808-1.93-1.218-1.932-.493-3.179-1.027-3.179-2.932v-.027c0-1.74,1.4-2.89,3.357-2.89a5.549,5.549,0,0,1,3.56,1.218l-1.1,1.592a4.486,4.486,0,0,0-2.492-.949c-.81,0-1.235.372-1.235.837v.027c0,.63.412.835,2.07,1.26,1.947.509,3.042,1.207,3.042,2.877v.027c0,1.9-1.454,2.972-3.52,2.972a6.1,6.1,0,0,1-4.069-1.533" transform="translate(97.935 65.427)"/><path class="c" d="M98.209,58.764h1.945l4.112,9.659h-2.2l-.879-2.148H97.126l-.877,2.148H94.1Zm2.22,5.646L99.156,61.3,97.881,64.41Z" transform="translate(104.825 65.462)"/><path class="c" d="M99.4,67.061l1.247-1.492a4.406,4.406,0,0,0,2.862,1.163c.865,0,1.385-.342,1.385-.9V65.8c0-.535-.33-.808-1.932-1.218-1.932-.493-3.177-1.027-3.177-2.932v-.027c0-1.74,1.4-2.89,3.355-2.89A5.555,5.555,0,0,1,106.7,59.95l-1.1,1.592a4.486,4.486,0,0,0-2.492-.949c-.81,0-1.235.372-1.235.837v.027c0,.63.41.835,2.07,1.26,1.945.509,3.04,1.207,3.04,2.877v.027c0,1.9-1.452,2.972-3.52,2.972A6.1,6.1,0,0,1,99.4,67.061" transform="translate(110.732 65.427)"/><path class="c" d="M103.632,67.061l1.243-1.492a4.416,4.416,0,0,0,2.864,1.163c.863,0,1.383-.342,1.383-.9V65.8c0-.535-.326-.808-1.93-1.218-1.932-.493-3.177-1.027-3.177-2.932v-.027c0-1.74,1.4-2.89,3.355-2.89a5.546,5.546,0,0,1,3.562,1.218l-1.1,1.592a4.481,4.481,0,0,0-2.495-.949c-.808,0-1.232.372-1.232.837v.027c0,.63.41.835,2.067,1.26,1.947.509,3.042,1.207,3.042,2.877v.027c0,1.9-1.45,2.972-3.52,2.972a6.092,6.092,0,0,1-4.067-1.533" transform="translate(115.445 65.427)"/><path class="c" d="M107.933,63.7v-.027a5.1,5.1,0,0,1,10.194-.025v.025a5.1,5.1,0,0,1-10.194.027m7.987,0v-.027a2.913,2.913,0,0,0-2.9-3.012,2.869,2.869,0,0,0-2.877,2.987v.025a2.915,2.915,0,0,0,2.9,3.017A2.869,2.869,0,0,0,115.92,63.7" transform="translate(120.236 65.411)"/><path class="c" d="M113.517,63.7v-.027a4.873,4.873,0,0,1,5-4.959A4.953,4.953,0,0,1,122.3,60.2l-1.342,1.547a3.54,3.54,0,0,0-2.452-1.08,2.84,2.84,0,0,0-2.78,2.987v.025a2.849,2.849,0,0,0,2.78,3.017,3.467,3.467,0,0,0,2.522-1.127l1.342,1.359a4.9,4.9,0,0,1-3.932,1.71,4.84,4.84,0,0,1-4.919-4.932" transform="translate(126.456 65.411)"/><rect class="c" width="2.11" height="9.591" transform="translate(250.662 124.294)"/><path class="c" d="M124.46,58.764H126.4l4.11,9.659h-2.2l-.877-2.148h-4.055l-.877,2.148h-2.152Zm2.22,5.646L125.4,61.3,124.13,64.41Z" transform="translate(134.066 65.462)"/><path class="c" d="M127.986,60.743h-2.919V58.8h7.946v1.947h-2.919v7.644h-2.108Z" transform="translate(139.322 65.498)"/><rect class="c" width="2.11" height="9.591" transform="translate(274.068 124.294)"/><path class="c" d="M131.655,63.7v-.027a5.1,5.1,0,0,1,10.194-.025v.025a5.1,5.1,0,0,1-10.194.027m7.987,0v-.027a2.912,2.912,0,0,0-2.9-3.012,2.868,2.868,0,0,0-2.879,2.987v.025a2.916,2.916,0,0,0,2.9,3.017,2.869,2.869,0,0,0,2.877-2.989" transform="translate(146.662 65.411)"/><path class="c" d="M137.47,58.8h1.945l4.494,5.906V58.8h2.082v9.591H144.2l-4.644-6.095v6.095H137.47Z" transform="translate(153.14 65.498)"/><path class="c" d="M26.789,73.476A1.312,1.312,0,0,1,25.4,74.643h-4.64A3.52,3.52,0,0,1,17.479,72.8a6.9,6.9,0,0,1-.778-3.621h1.571a5.976,5.976,0,0,0,.509,2.634,2.166,2.166,0,0,0,2.051,1.378h3.805c.387,0,.581-.287.581-.837l-.044-3.175H26.76c.017.761.03,2.2.03,4.3m-5.251-4.3H20.1V67.669h1.438Zm2.169,0H22.269V67.669h1.438Z" transform="translate(18.602 75.382)"/><path class="c" d="M25.852,76.071H24.011a1.456,1.456,0,0,1-1.061-.433,1.767,1.767,0,0,1-.509-1.332l-.047-7.919h1.588l.059,7.291c0,.537.268.943.689.943h1.123Z" transform="translate(24.947 73.954)"/><path class="c" d="M25.327,76.123H23.875V74.61h1.452ZM28.274,71.9a1.8,1.8,0,0,1-2.006,1.945H23.919V72.4h1.765A.955.955,0,0,0,26.7,71.365c0-.583,0-1.082-.015-1.484-.015-.615-.015-1.12-.03-1.5h1.588c.013,2.363.027,3.532.027,3.518m-.793,4.222H26.044V74.61h1.438Z" transform="translate(26.596 76.179)"/><path class="c" d="M27.4,75.868a3.165,3.165,0,0,0,3.025-2.006H29.377a2.563,2.563,0,0,1-2.5-2.676,2.726,2.726,0,0,1,2.8-2.816,2.281,2.281,0,0,1,2.575,2.366v1.736c0,2.575-1.526,4.461-3.877,4.64-.224-.3-.554-.717-.975-1.243M30.664,72.4c-.015-1.228-.015-1.9-.015-2.023a1.1,1.1,0,0,0-.972-.911c-.689,0-1.213.628-1.213,1.647A1.226,1.226,0,0,0,29.6,72.4Z" transform="translate(29.942 76.163)"/><path class="c" d="M33.805,76.071H31.964a1.456,1.456,0,0,1-1.061-.433,1.767,1.767,0,0,1-.509-1.332l-.047-7.919h1.588l.059,7.291c0,.537.271.943.689.943h1.123Z" transform="translate(33.806 73.954)"/><path class="c" d="M40.007,73.215H38.464a2.429,2.429,0,0,1-2.425,1.364,2.639,2.639,0,0,1-2.469-1.364H31.849v-1.45h1.332a2.576,2.576,0,0,1,2.738-2.814,2.7,2.7,0,0,1,2.112.884,2.757,2.757,0,0,1,.748,1.93h1.228Zm-2.8-1.45a1.627,1.627,0,0,0-.389-1.123,1.067,1.067,0,0,0-.824-.374.993.993,0,0,0-.808.374,1.7,1.7,0,0,0-.347,1.123,1.622,1.622,0,0,0,.391,1.135,1.07,1.07,0,0,0,.824.376c.657,0,1.152-.539,1.152-1.512" transform="translate(35.479 76.811)"/><path class="c" d="M42.662,73.847H41.328a1.465,1.465,0,0,1-1.15-.567,2.147,2.147,0,0,1-.374-.645,1.969,1.969,0,0,1-1.856,1.211H35.582V72.4h1.765a1.347,1.347,0,0,0,.78-.239.9.9,0,0,0,.463-.81l-.03-2.964h1.571q0,.831.047,2.336a1.691,1.691,0,0,0,.463,1.256,1.083,1.083,0,0,0,.822.421h1.2v1.45Zm-4,2.277H37.212V74.61h1.452Zm2.156,0H39.385V74.61H40.82Z" transform="translate(39.638 76.179)"/><path class="c" d="M49.125,75.489H38.8v-1.45h6.095a3.059,3.059,0,0,0-1-1.915,2.713,2.713,0,0,0-1.812-.63,4.087,4.087,0,0,0-2.23.7l-.583-1.226,4.027-4.059L44.411,68l-2.065,2.023c2.319,0,3.683,1.332,4.072,4.012h2.708Z" transform="translate(43.218 74.537)"/><path class="c" d="M47.155,74.126a1.817,1.817,0,0,1-2.021,1.945H43.549V74.619h1.017a.953.953,0,0,0,1.019-1.032c0-.926-.015-2.127-.03-3.594-.015-1.664-.03-2.873-.03-3.606h1.569c.017.689.017,1.977.034,3.875.013,1.617.027,2.9.027,3.864" transform="translate(48.513 73.954)"/><path class="c" d="M47.822,76.071H46.251l-.074-9.684h1.571Z" transform="translate(51.441 73.954)"/><path class="c" d="M48.4,75.868a3.165,3.165,0,0,0,3.025-2.006H50.375a2.563,2.563,0,0,1-2.5-2.676,2.724,2.724,0,0,1,2.8-2.816,2.283,2.283,0,0,1,2.577,2.366v1.736c0,2.575-1.526,4.461-3.877,4.64-.224-.3-.554-.717-.975-1.243M51.662,72.4c-.015-1.228-.015-1.9-.015-2.023a1.1,1.1,0,0,0-.975-.911c-.685,0-1.211.628-1.211,1.647A1.226,1.226,0,0,0,50.6,72.4Z" transform="translate(53.333 76.163)"/><path class="c" d="M62.528,73.476a1.314,1.314,0,0,1-1.393,1.167h-4.64A3.517,3.517,0,0,1,53.218,72.8a6.881,6.881,0,0,1-.78-3.621h1.571a5.945,5.945,0,0,0,.512,2.634,2.164,2.164,0,0,0,2.051,1.378h3.8c.393,0,.586-.287.586-.837l-.044-3.175H62.5c.017.761.032,2.2.032,4.3m-5.255-4.3H55.835V67.669h1.438Zm2.171,0H58.009V67.669h1.435Z" transform="translate(58.413 75.382)"/><path class="c" d="M61.588,76.071H59.747a1.456,1.456,0,0,1-1.061-.433,1.767,1.767,0,0,1-.509-1.332l-.044-7.919h1.585l.059,7.291c0,.537.268.943.689.943h1.123Z" transform="translate(64.758 73.954)"/><path class="c" d="M61.062,76.123h-1.45V74.61h1.45ZM64.013,71.9a1.805,1.805,0,0,1-2.008,1.945H59.656V72.4h1.765a.954.954,0,0,0,1.017-1.032c0-.583,0-1.082-.013-1.484-.015-.615-.015-1.12-.032-1.5h1.59c.013,2.363.03,3.532.03,3.518m-.795,4.222H61.781V74.61h1.438Z" transform="translate(66.407 76.179)"/><path class="c" d="M63.137,75.868a3.165,3.165,0,0,0,3.025-2.006H65.114a2.563,2.563,0,0,1-2.5-2.676,2.726,2.726,0,0,1,2.8-2.816,2.282,2.282,0,0,1,2.575,2.366v1.736c0,2.575-1.526,4.461-3.877,4.64-.224-.3-.554-.717-.975-1.243M66.4,72.4c-.015-1.228-.015-1.9-.015-2.023a1.1,1.1,0,0,0-.972-.911c-.689,0-1.213.628-1.213,1.647A1.226,1.226,0,0,0,65.34,72.4Z" transform="translate(69.752 76.163)"/><path class="c" d="M69.542,76.071H67.7a1.453,1.453,0,0,1-1.061-.433,1.767,1.767,0,0,1-.509-1.332l-.044-7.919h1.585l.059,7.291c0,.537.271.943.687.943h1.125Z" transform="translate(73.619 73.954)"/><path class="c" d="M75.744,73.215H74.2a2.436,2.436,0,0,1-2.427,1.364,2.637,2.637,0,0,1-2.469-1.364H67.586v-1.45h1.332a2.576,2.576,0,0,1,2.74-2.814,2.7,2.7,0,0,1,2.112.884,2.765,2.765,0,0,1,.746,1.93h1.228Zm-2.8-1.45a1.627,1.627,0,0,0-.389-1.123,1.067,1.067,0,0,0-.824-.374.989.989,0,0,0-.805.374,1.692,1.692,0,0,0-.345,1.123,1.621,1.621,0,0,0,.389,1.135,1.064,1.064,0,0,0,.82.376c.662,0,1.154-.539,1.154-1.512" transform="translate(75.29 76.811)"/><path class="c" d="M78.4,73.847H77.068a1.476,1.476,0,0,1-1.154-.567,2.232,2.232,0,0,1-.372-.645,1.97,1.97,0,0,1-1.858,1.211H71.318V72.4h1.767a1.341,1.341,0,0,0,.778-.239.9.9,0,0,0,.465-.81l-.03-2.964h1.571q0,.831.044,2.336a1.693,1.693,0,0,0,.465,1.256,1.083,1.083,0,0,0,.822.421h1.2v1.45Zm-4,2.277h-1.45V74.61H74.4Zm2.156,0H75.121V74.61h1.438Z" transform="translate(79.447 76.179)"/><path class="c" d="M82.273,75.489H74.534V74.024h6.095a2.965,2.965,0,0,0-.975-1.9,2.733,2.733,0,0,0-1.826-.63,4.124,4.124,0,0,0-2.23.7l-.583-1.226,4.027-4.059L80.149,68,78.1,70.026A3.592,3.592,0,0,1,81.377,71.7a7,7,0,0,1,.9,3.786" transform="translate(83.03 74.537)"/><path class="c" d="M79.639,75.868a3.167,3.167,0,0,0,3.025-2.006H81.618a2.564,2.564,0,0,1-2.5-2.676,2.727,2.727,0,0,1,2.8-2.816,2.283,2.283,0,0,1,2.579,2.366v1.736c0,2.575-1.526,4.461-3.877,4.64-.228-.3-.556-.717-.977-1.243M82.905,72.4c-.017-1.228-.017-1.9-.017-2.023a1.1,1.1,0,0,0-.975-.911c-.687,0-1.209.628-1.209,1.647A1.224,1.224,0,0,0,81.842,72.4Z" transform="translate(88.133 76.163)"/><path class="c" d="M81.546,75.853a3.174,3.174,0,0,0,3.277-3.232V68.384H86.41v2.5a1.557,1.557,0,0,0,1.3,1.514h1.662v1.45H87.818a1.564,1.564,0,0,1-1.393-.928,4.223,4.223,0,0,1-3.892,4.175c-.224-.3-.554-.717-.987-1.241" transform="translate(90.841 76.179)"/><path class="c" d="M92.33,75.284H90.863a1.472,1.472,0,0,1-1.152-.567,2.193,2.193,0,0,1-.374-.645,1.969,1.969,0,0,1-1.856,1.211H85.115v-1.45h1.767a1.345,1.345,0,0,0,.778-.239.9.9,0,0,0,.463-.81l-.03-2.964h1.573q0,.831.044,2.336a1.693,1.693,0,0,0,.465,1.256,1.079,1.079,0,0,0,.82.421H92.33v1.45Zm-3.862-6.676H87.015V67.094h1.452Zm2.171,0H89.187V67.094h1.452Z" transform="translate(94.817 74.742)"/><path class="c" d="M95.623,73.847H94.156A1.469,1.469,0,0,1,93,73.28a2.193,2.193,0,0,1-.374-.645,1.965,1.965,0,0,1-1.856,1.211H88.408V72.4h1.765a1.342,1.342,0,0,0,.78-.239.9.9,0,0,0,.465-.81l-.032-2.964h1.573c0,.554.013,1.332.044,2.336a1.7,1.7,0,0,0,.463,1.256,1.087,1.087,0,0,0,.824.421h1.332v1.45Zm-2.528,2.277H91.642V74.61h1.452Z" transform="translate(98.485 76.179)"/><path class="c" d="M98.033,76.088H96.776a1.7,1.7,0,0,1-1.511-1.213,2.011,2.011,0,0,1-1.871,1.213H91.7v-1.45h1.093a1.169,1.169,0,0,0,1.241-1.049l-.059-7.217h1.571c0,1.11.061,6.139.076,6.589a1.573,1.573,0,0,0,1.287,1.676h1.123Z" transform="translate(102.155 73.938)"/><path class="c" d="M98.171,74.126a1.817,1.817,0,0,1-2.021,1.945H94.562V74.619h1.019A.954.954,0,0,0,96.6,73.587c0-.926-.015-2.127-.032-3.594-.013-1.664-.03-2.873-.03-3.606h1.573c.015.689.015,1.977.03,3.875.015,1.617.03,2.9.03,3.864" transform="translate(105.341 73.954)"/><path class="c" d="M110.644,74.123h-1.211a1.911,1.911,0,0,1-1.467-.643,2.582,2.582,0,0,1-.6-1.123q-.558-2.629-2.2-2.6c-.839.013-1.423.537-1.765,1.573h2.873v1.841a4.164,4.164,0,0,1-1.169,2.977,3.773,3.773,0,0,1-5.6,0,4.188,4.188,0,0,1-1.165-2.991c-.017-.376-.032-.975-.061-1.826h1.571c0,.254,0,.611.015,1.046s.032.689.032.795a2.492,2.492,0,0,0,.822,1.943,2.278,2.278,0,0,0,1.573.645,2.243,2.243,0,0,0,1.6-.645,2.546,2.546,0,0,0,.808-1.974l-.015-.345H101.5a5.422,5.422,0,0,1,.989-3.488,3.468,3.468,0,0,1,5.372.224,7.429,7.429,0,0,1,.9,2.186,1.164,1.164,0,0,0,1.211.96h.674ZM102.126,80h-1.438V78.492h1.438Zm2.171,0H102.86V78.492H104.3Z" transform="translate(109.484 75.903)"/><path class="c" d="M113.5,73.926h-9.549v-1.45h6.57c-.3-1.782-1.167-2.664-2.6-2.664a3.089,3.089,0,0,0-1.991.509l-.611-1.23a3.907,3.907,0,0,1,2.647-.778,3.576,3.576,0,0,1,2.89,1.273,5.528,5.528,0,0,1,1.182,2.89H113.5ZM108.939,76.2H107.5V74.689h1.44Z" transform="translate(115.803 76.1)"/><path class="c" d="M115.418,73.847h-1.332a1.476,1.476,0,0,1-1.154-.567,2.232,2.232,0,0,1-.372-.645,1.97,1.97,0,0,1-1.858,1.211h-2.363V72.4h1.767a1.334,1.334,0,0,0,.776-.239.9.9,0,0,0,.465-.81l-.03-2.964h1.571q0,.831.044,2.336a1.693,1.693,0,0,0,.465,1.256,1.084,1.084,0,0,0,.824.421h1.2v1.45Zm-4,2.277h-1.452V74.61h1.452Zm2.156,0h-1.44V74.61h1.44Z" transform="translate(120.687 76.179)"/><path class="c" d="M117.884,76.088h-1.258a1.7,1.7,0,0,1-1.512-1.213,2.011,2.011,0,0,1-1.871,1.213h-1.691v-1.45h1.093a1.169,1.169,0,0,0,1.241-1.049l-.059-7.217H115.4c0,1.11.059,6.139.076,6.589a1.571,1.571,0,0,0,1.285,1.676h1.123Z" transform="translate(124.268 73.938)"/><path class="c" d="M123.965,75.284h-9.551v-1.45h6.572c-.3-1.782-1.167-2.664-2.607-2.664a3.082,3.082,0,0,0-1.989.509l-.613-1.23a3.911,3.911,0,0,1,2.651-.778,3.578,3.578,0,0,1,2.888,1.273,5.563,5.563,0,0,1,1.182,2.89h1.467Zm-4.625-6.676h-1.452V67.094h1.452Z" transform="translate(127.456 74.742)"/><path class="c" d="M122.405,74.126a1.817,1.817,0,0,1-2.021,1.945H118.8V74.619h1.019a.952.952,0,0,0,1.015-1.032c0-.926-.015-2.127-.03-3.594-.015-1.664-.027-2.873-.027-3.606h1.569c.017.689.017,1.977.03,3.875.017,1.617.032,2.9.032,3.864" transform="translate(132.34 73.954)"/><path class="c" d="M123.072,76.071H121.5l-.076-9.684H123Z" transform="translate(135.266 73.954)"/><path class="c" d="M131.212,73.847h-6.6l.748-1.45h4.162a3.187,3.187,0,0,0-.869-1.977,1.756,1.756,0,0,0-1.213-.615V68.384a3.223,3.223,0,0,1,2.755,1.332,7.064,7.064,0,0,1,1.017,4.131" transform="translate(138.816 76.179)"/><path class="c" d="M132.113,76.071h-1.841a1.456,1.456,0,0,1-1.061-.433,1.767,1.767,0,0,1-.51-1.332l-.044-7.919h1.585l.059,7.291c0,.537.271.943.689.943h1.123Z" transform="translate(143.322 73.954)"/><path class="c" d="M139.709,73.926h-9.551v-1.45h6.572c-.3-1.784-1.167-2.664-2.607-2.664a3.082,3.082,0,0,0-1.989.509l-.615-1.23a3.922,3.922,0,0,1,2.651-.778,3.572,3.572,0,0,1,2.888,1.273,5.522,5.522,0,0,1,1.184,2.89h1.467Z" transform="translate(144.994 76.1)"/><path class="c" d="M138.9,73.339a1.8,1.8,0,0,1-2.006,1.945h-2.351v-1.45h1.765a.954.954,0,0,0,1.019-1.032c0-.583,0-1.082-.015-1.484-.015-.615-.015-1.12-.03-1.5h1.588c.013,2.363.03,3.532.03,3.518m-2.292-4.731H135.17V67.094h1.438Zm2.171,0h-1.438V67.094h1.438Z" transform="translate(149.878 74.742)"/><path class="c" d="M142.5,73.137a2.555,2.555,0,0,1-1.093,2.127,4.526,4.526,0,0,1-2.784.808h-1.275V74.619h.66a3.75,3.75,0,0,0,1.824-.419,1.885,1.885,0,0,0,1.065-1.767c0-.044-.032-2.051-.093-6.046h1.6Zm-2.951-.074a2.426,2.426,0,0,1-1.573.569l-.074-7.245h1.573Z" transform="translate(153.001 73.954)"/><path class="c" d="M142.35,76.071h-1.571l-.076-9.684h1.573Z" transform="translate(156.741 73.954)"/><path class="c" d="M35.312,13.264A35.3,35.3,0,0,0,4.727,66.234v.008a35.142,35.142,0,0,0,6.5,8.156.306.306,0,0,0,.082.082,35.3,35.3,0,0,0,48.019,0,.339.339,0,0,0,.082-.082c.622-.579,1.23-1.188,1.812-1.812V83.9a25.933,25.933,0,0,1-25.907,25.9v9.42A35.316,35.316,0,0,0,70.628,83.9V13.264ZM61.219,48.582A25.789,25.789,0,0,1,59.443,58a.593.593,0,0,1-.036.074v.008a25.906,25.906,0,0,1-48.184,0v-.008A.288.288,0,0,1,11.189,58,25.89,25.89,0,0,1,35.312,22.684H61.219Z" transform="translate(0 14.776)"/><path class="c" d="M107.288,52.088a35.5,35.5,0,0,1-1.27,9.42,35.183,35.183,0,0,1-9.08,15.548c-.264.268-.531.524-.8.774a2.315,2.315,0,0,1-.173.156,35.281,35.281,0,0,1-48,0h-.015v-.008c-.328-.3-.643-.6-.956-.922-.285-.281-.558-.562-.822-.854v46.525H36.751V49.439A35.179,35.179,0,0,1,47,27.111c.313-.315.636-.624.962-.922h-.042l2.759-2.75,6.661-6.67L64,10.117a9.376,9.376,0,0,1,2.757,6.653v.008c0,.133,0,.258-.008.383a9.371,9.371,0,0,1-2.59,6.114c-.159.165-.317.323-.484.482L61.239,26.19l-7.587,7.583A25.827,25.827,0,0,0,46.08,52.088c0,.706.023,1.412.093,2.112a25.532,25.532,0,0,0,1.676,7.308.637.637,0,0,0,.051.14,25.371,25.371,0,0,0,5.19,8.158c.175.209.366.4.562.6a25.952,25.952,0,0,0,36.635,0c.23-.233.454-.465.662-.706a25.406,25.406,0,0,0,5.143-8.181v-.008a25.991,25.991,0,0,0-5.8-27.735h-.008l-.152-.148L82.694,26.19,80.27,23.756c-.133-.125-.266-.249-.393-.383A9.457,9.457,0,0,1,77.2,17.161c-.008-.125-.008-.249-.008-.383V16.77a9.369,9.369,0,0,1,2.759-6.653L86.6,16.77l6.663,6.661v.008l2.757,2.75h-.032c.323.3.638.607.953.922a35.185,35.185,0,0,1,10.35,24.977" transform="translate(40.94 11.27)"/><path class="c" d="M81.813,48.582A25.7,25.7,0,0,0,83.593,58a.223.223,0,0,0,.032.074v.008a25.91,25.91,0,0,0,48.184-.008c.006-.025.017-.049.023-.074h9.927a35.277,35.277,0,0,1-3.456,8.232v.008a35.356,35.356,0,0,1-6.494,8.164.7.7,0,0,1-.082.074,35.3,35.3,0,0,1-48.021,0,.331.331,0,0,1-.08-.082,35.087,35.087,0,0,1-6.5-8.156v-.008a35.318,35.318,0,0,1,30.583-52.97H143.03v9.42H107.711a25.926,25.926,0,0,0-25.9,25.9" transform="translate(80.647 14.776)"/><path class="c" d="M143.353,13.264a35.3,35.3,0,0,0-30.589,52.97v.008a35.752,35.752,0,0,0,6.494,8.164.587.587,0,0,0,.085.074,35.31,35.31,0,0,0,48.026,0,.731.731,0,0,0,.085-.074c.624-.581,1.22-1.188,1.8-1.81V83.9h9.42V13.264Zm25.9,35.318A25.746,25.746,0,0,1,167.476,58l-.023.074a26.144,26.144,0,0,1-5.167,8.166,25.913,25.913,0,0,1-43.028-8.166L119.233,58a25.89,25.89,0,0,1,24.121-35.318h25.9Z" transform="translate(120.349 14.776)"/><path class="c" d="M59.6,4.1a3.458,3.458,0,1,1-4.835.753A3.453,3.453,0,0,1,59.6,4.1" transform="translate(60.262 3.828)"/><path class="c" d="M56.128,7.185a3.238,3.238,0,1,1-4.522.719,3.243,3.243,0,0,1,4.522-.719" transform="translate(56.797 7.317)"/><path class="c" d="M64.447,24.325a6.1,6.1,0,1,1-8.541,1.228,6.1,6.1,0,0,1,8.541-1.228" transform="translate(60.923 25.741)"/><path class="c" d="M67.1,32.587A6.071,6.071,0,1,1,58.591,33.7,6.072,6.072,0,0,1,67.1,32.587" transform="translate(63.867 34.9)"/><path class="c" d="M60.625,36.317a4.638,4.638,0,1,1-6.507.837,4.638,4.638,0,0,1,6.507-.837" transform="translate(59.208 39.378)"/><path class="c" d="M59.921,29.606a5.983,5.983,0,1,1-8.342,1.4,5.987,5.987,0,0,1,8.342-1.4" transform="translate(56.217 31.746)"/><path class="c" d="M53.749,23.711a3.625,3.625,0,1,1-5.063.78,3.627,3.627,0,0,1,5.063-.78" transform="translate(53.453 25.632)"/><path class="c" d="M55.792,35.364a5.721,5.721,0,1,1-8.02,1.072,5.714,5.714,0,0,1,8.02-1.072" transform="translate(51.91 38.085)"/><path class="c" d="M51.069,30.642a4.461,4.461,0,1,1-6.251.869,4.463,4.463,0,0,1,6.251-.869" transform="translate(48.918 33.127)"/><path class="c" d="M55.3.9a4.462,4.462,0,1,1-6.249.867A4.466,4.466,0,0,1,55.3.9" transform="translate(53.637 0)"/><path class="c" d="M56.707,19.106a3.139,3.139,0,1,1-4.387.7,3.133,3.133,0,0,1,4.387-.7" transform="translate(57.619 20.614)"/></g></g></svg>